<?xml version="1.0" standalone="no"?>
<!DOCTYPE svg PUBLIC "-//W3C//DTD SVG 20010904//EN"
 "http://www.w3.org/TR/2001/REC-SVG-20010904/DTD/svg10.dtd">
<svg version="1.0" xmlns="http://www.w3.org/2000/svg"
 width="500.000000pt" height="500.000000pt" viewBox="0 0 500.000000 500.000000"
 preserveAspectRatio="xMidYMid meet">

<g transform="translate(0.000000,500.000000) scale(0.100000,-0.100000)"
fill="#000000" stroke="none">
<path d="M2435 4233 c-539 -42 -1013 -303 -1325 -729 -49 -67 -108 -156 -131
-199 -43 -79 -129 -281 -129 -302 0 -8 11 -6 33 6 53 32 136 51 216 51 l76 0
25 48 c70 133 182 282 297 396 65 64 141 131 168 149 28 18 74 50 104 70 134
93 343 173 531 203 153 25 141 21 129 50 -11 32 -4 61 23 91 29 31 70 38 113
18 37 -18 47 -39 49 -103 l1 -36 87 -13 c223 -32 418 -104 609 -227 259 -165
447 -379 569 -645 66 -143 97 -237 119 -364 l16 -88 65 56 c36 31 93 78 127
103 74 55 74 50 17 222 -53 163 -164 376 -265 510 -186 246 -462 471 -701 571
-229 95 -399 140 -598 158 -112 11 -141 11 -225 4z"/>
<path d="M2288 3804 c-83 -18 -195 -65 -268 -112 -75 -49 -208 -185 -249 -254
-64 -110 -108 -244 -113 -348 l-3 -55 83 -3 82 -3 0 43 c1 161 102 357 241
470 184 149 482 178 701 67 73 -37 205 -161 240 -226 67 -122 85 -287 48 -422
-36 -127 -87 -202 -199 -292 l-74 -59 152 0 151 0 31 43 c166 223 173 586 18
814 -119 175 -272 285 -463 333 -95 24 -275 26 -378 4z"/>
<path d="M2162 3493 c-94 -46 -132 -182 -68 -242 27 -25 87 -37 141 -27 40 8
99 55 121 97 32 62 4 158 -52 179 -38 15 -105 12 -142 -7z"/>
<path d="M2604 3476 c-29 -29 -34 -41 -34 -82 0 -56 30 -116 73 -148 34 -25
139 -33 177 -14 14 8 34 30 45 50 17 33 18 42 7 84 -25 91 -91 144 -182 144
-46 0 -56 -4 -86 -34z"/>
<path d="M3405 3391 c-12 -28 -30 -46 -57 -60 l-39 -19 38 -19 c22 -12 45 -35
57 -58 l20 -39 7 28 c10 37 28 57 68 73 l34 15 -41 18 c-23 11 -42 20 -42 22
0 2 -6 20 -13 41 l-14 38 -18 -40z"/>
<path d="M2415 3256 c-53 -23 -85 -71 -85 -124 0 -59 26 -103 73 -125 43 -21
77 -21 121 -3 69 29 100 98 76 171 -23 69 -119 111 -185 81z"/>
<path d="M3647 3050 c-12 -31 -25 -45 -57 -59 l-42 -19 39 -18 c25 -13 44 -32
57 -58 19 -39 19 -39 28 -15 13 33 44 65 79 79 l29 12 -41 21 c-29 14 -47 32
-59 59 l-17 38 -16 -40z"/>
<path d="M2110 3013 c-104 -54 -108 -192 -7 -267 41 -30 130 -29 175 2 84 61
85 193 1 253 -41 29 -124 35 -169 12z"/>
<path d="M2687 2998 c-72 -42 -99 -152 -54 -218 57 -85 184 -97 248 -24 36 41
51 85 44 130 -16 111 -140 168 -238 112z"/>
<path d="M1004 2946 c-77 -24 -181 -112 -217 -183 -20 -38 -44 -119 -52 -170
l-7 -43 140 0 140 0 11 28 c15 36 86 82 126 82 29 0 33 5 98 143 37 79 67 147
67 150 0 13 -263 6 -306 -7z"/>
<path d="M1392 2913 c-11 -27 -44 -100 -72 -163 -45 -100 -50 -117 -39 -135
46 -73 50 -117 17 -176 -25 -45 -86 -79 -142 -79 -49 0 -112 33 -131 70 l-16
30 -139 0 -140 0 0 -27 c0 -46 28 -150 54 -201 28 -56 115 -141 177 -173 39
-20 65 -23 248 -31 123 -6 208 -5 213 0 5 5 16 40 23 77 8 38 36 111 61 164
98 201 255 310 484 336 l55 6 -51 53 c-67 69 -118 149 -146 231 l-23 65 -206
0 -206 0 -21 -47z"/>
<path d="M4248 2660 c-20 -16 -61 -49 -91 -72 -47 -38 -129 -105 -284 -233
-23 -19 -44 -35 -47 -35 -3 0 -6 70 -6 155 0 85 -3 155 -7 155 -3 0 -53 -23
-110 -51 l-103 -51 0 -333 0 -333 108 -39 107 -40 3 179 c1 98 5 178 8 178 5
0 114 -97 272 -243 46 -43 88 -75 92 -70 19 19 71 213 92 335 23 141 30 444
12 501 l-9 27 -37 -30z"/>
<path d="M1874 2515 c-92 -45 -218 -167 -266 -255 -39 -71 -75 -196 -65 -223
6 -15 20 -17 101 -16 l94 2 4 116 c4 139 26 196 91 239 l41 27 565 3 c419 2
573 0 594 -9 30 -13 51 -51 42 -78 -5 -18 -235 -246 -474 -471 -79 -74 -167
-157 -195 -184 -81 -78 -115 -89 -275 -87 -146 1 -161 6 -161 57 0 12 6 26 13
31 6 6 69 13 139 16 155 6 166 11 286 126 105 103 248 239 400 384 l113 107
-473 0 c-471 0 -474 0 -518 -22 -25 -13 -55 -38 -67 -57 -23 -34 -23 -38 -23
-366 0 -329 0 -332 23 -366 12 -18 38 -44 56 -56 l34 -23 549 0 c519 0 551 1
586 19 46 23 67 46 87 94 21 51 23 870 1 920 -16 39 -61 82 -99 96 -19 7 -215
11 -581 11 l-553 0 -69 -35z m1127 -564 c31 -32 36 -55 17 -96 -26 -58 -103
-71 -149 -26 -60 60 -22 150 64 151 29 0 45 -7 68 -29z"/>
<path d="M3399 2432 c-41 -20 -90 -43 -107 -50 l-32 -14 2 -196 3 -197 100
-36 c55 -21 106 -38 113 -38 9 -1 12 62 12 284 0 157 -3 285 -7 284 -5 0 -42
-17 -84 -37z"/>
<path d="M800 2026 c0 -2 15 -48 34 -103 103 -294 258 -536 482 -753 135 -130
242 -208 404 -293 161 -84 286 -130 446 -164 119 -25 147 -27 359 -27 200 0
245 3 345 22 545 109 1006 462 1263 968 l16 32 -110 98 c-61 55 -114 100 -118
101 -3 2 -21 -33 -40 -78 -69 -162 -212 -349 -372 -487 -215 -187 -464 -305
-743 -353 -67 -12 -131 -23 -143 -25 -18 -3 -20 -8 -14 -32 13 -47 -5 -91 -46
-108 -43 -18 -76 -12 -110 22 -20 20 -24 33 -22 72 l3 47 -59 7 c-405 47 -809
288 -1046 623 -53 74 -134 213 -159 271 l-21 51 -74 6 c-83 7 -159 33 -228 77
-26 16 -47 28 -47 26z"/>
<path d="M1460 1827 c0 -33 -33 -77 -74 -96 -39 -20 -39 -20 -13 -27 31 -7 87
-67 87 -92 0 -9 10 1 23 23 14 25 37 47 62 59 25 12 34 21 25 24 -35 11 -74
48 -91 86 -10 23 -19 33 -19 23z"/>
<path d="M2095 1232 c-22 -37 -41 -70 -43 -74 -2 -5 211 -8 473 -8 262 0 475
3 473 8 -1 4 -21 37 -43 74 l-40 68 -390 0 -390 0 -40 -68z"/>
</g>
</svg>
